<?xml version="1.0" encoding="UTF-8"?>
<svg id="svg8" xmlns="http://www.w3.org/2000/svg" viewBox="0 0 491.04 491.2">
  <defs>
    <style>
      .cls-1 {
        fill: #30b873;
      }

      .cls-1, .cls-2, .cls-3, .cls-4, .cls-5, .cls-6, .cls-7, .cls-8, .cls-9, .cls-10, .cls-11, .cls-12, .cls-13, .cls-14, .cls-15 {
        stroke-width: 0px;
      }

      .cls-2 {
        fill: #57c115;
      }

      .cls-3 {
        fill: rgba(149, 0, 255, 1);
      }

      .cls-4 {
        fill: #a730b8;
      }

      .cls-5 {
        fill: #5496be;
      }

      .cls-6 {
        fill: rgba(255, 0, 0, 1);
      }

      .cls-7 {
        fill: rgba(255, 202, 0, 1);
      }

      .cls-8 {
        fill: #dbb210;
      }

      .cls-9 {
        fill: #d0188f;
      }

      .cls-10 {
        fill: #f47601;
      }

      .cls-11 {
        fill: #ce3d1a;
      }

      .cls-12 {
        fill: #ebe305;
      }

      .cls-13 {
        fill: rgba(0, 163, 255, 1);
      }

      .cls-14 {
        fill: rgba(100, 255, 0, 1);
      }

      .cls-15 {
        fill: #5b36e9;
      }
    </style>
  </defs>
  <g id="layer2">
    <path id="path9722" class="cls-4" d="M92.75,185.13c-4.93,9.58-12.64,17.37-22.1,22.33l121.32,123.64,29.25-15.05L92.75,185.13ZM252.77,348.2l-29.25,15.05,61.47,62.65c4.93-9.58,12.65-17.38,22.1-22.33l-54.33-55.36Z"/>
    <path id="path9729" class="cls-5" d="M393.13,234.05l-68.68,35.34,5.06,32.88,77.71-39.98c-7.45-7.71-12.37-17.58-14.09-28.24ZM284.58,289.9l-162.39,83.55c7.45,7.71,12.37,17.58,14.1,28.24l153.36-78.9-5.06-32.88Z"/>
    <path id="path9713" class="cls-11" d="M232.36,84.09l-78.36,155.3,23.14,23.58,82.97-164.42c-10.49-1.8-20.18-6.85-27.74-14.45ZM133.62,279.78l-39.69,78.66c10.49,1.8,20.18,6.85,27.74,14.45l35.09-69.54-23.13-23.58Z"/>
    <path id="path1015" class="cls-9" d="M69.98,207.8c-7.99,4.06-16.89,5.95-25.81,5.48-1.67-.09-3.33-.27-4.99-.53l23.18,150.5c7.99-4.06,16.89-5.95,25.81-5.48,1.67.09,3.33.27,4.98.53l-23.17-150.5Z"/>
    <path id="path1674" class="cls-15" d="M136.41,402.43c.53,3.49.71,7.03.54,10.57-.4,7.21-2.25,14.25-5.45,20.69l148.22,24.15c-.53-3.49-.71-7.04-.54-10.57.4-7.2,2.25-14.25,5.45-20.69l-148.22-24.15Z"/>
    <path id="path1676" class="cls-1" d="M407.75,262.84l-68.41,135.59c10.49,1.8,20.18,6.85,27.75,14.45l68.41-135.59c-10.49-1.8-20.18-6.85-27.74-14.45Z"/>
    <path id="path1678" class="cls-12" d="M314.44,71.07c-4.93,9.58-12.65,17.38-22.1,22.33l105.95,107.97c4.93-9.58,12.64-17.38,22.1-22.33l-105.95-107.97Z"/>
    <path id="path1680" class="cls-10" d="M217.74,55.31L83.81,124.21c7.45,7.71,12.37,17.58,14.09,28.24l133.93-68.91c-7.45-7.71-12.37-17.57-14.09-28.23Z"/>
    <path id="path9758" class="cls-2" d="M292.09,93.53c-8.1,4.21-17.15,6.18-26.24,5.7-1.51-.09-3.02-.25-4.52-.48l11.86,77.12,32.37,5.27-13.48-87.61ZM280.09,220.7l28.05,182.34c7.9-3.93,16.65-5.75,25.44-5.29,1.81.1,3.62.31,5.41.6l-26.52-172.38-32.37-5.27Z"/>
    <path id="path9760" class="cls-8" d="M98,153.03c.55,3.55.74,7.14.57,10.73-.39,7.15-2.22,14.14-5.37,20.54l76.03,12.4,14.94-29.62-86.17-14.05ZM228.3,174.27l-14.94,29.63,179.64,29.29c-.52-3.46-.69-6.95-.52-10.45.4-7.25,2.28-14.33,5.51-20.8l-169.68-27.67Z"/>
  </g>
  <g id="layer3">
    <circle id="path817" class="cls-7" cx="268.67" cy="46.97" r="46.97"/>
    <circle id="path819" class="cls-14" cx="444.06" cy="223.05" r="46.97"/>
    <circle id="path823" class="cls-13" cx="330.77" cy="444.22" r="46.97"/>
    <circle id="path825" class="cls-3" cx="85.35" cy="404.84" r="46.97"/>
    <circle id="path827" class="cls-6" cx="46.97" cy="159.33" r="46.97"/>
  </g>
</svg>